<svg width="96" height="16" viewBox="0 0 96 16" fill="none" xmlns="http://www.w3.org/2000/svg">
<path d="M90.1212 15.9574C88.999 15.9574 88.0331 15.7301 87.2234 15.2756C86.4185 14.8163 85.7982 14.1676 85.3626 13.3296C84.927 12.4868 84.7092 11.4901 84.7092 10.3395C84.7092 9.21734 84.927 8.23249 85.3626 7.38495C85.7982 6.53741 86.4114 5.8769 87.2021 5.40342C87.9976 4.92993 88.9303 4.69319 90.0004 4.69319C90.7201 4.69319 91.3901 4.8092 92.0104 5.0412C92.6354 5.26848 93.1799 5.61175 93.6439 6.07103C94.1126 6.53031 94.4772 7.10796 94.7376 7.80399C94.9981 8.49527 95.1283 9.30493 95.1283 10.233V11.0639H85.9166V9.18893H92.2803C92.2803 8.75332 92.1856 8.36743 91.9962 8.03126C91.8068 7.69509 91.544 7.4323 91.2078 7.24291C90.8764 7.04878 90.4905 6.95171 90.0501 6.95171C89.5909 6.95171 89.1837 7.05825 88.8285 7.27132C88.4782 7.47965 88.2035 7.76137 88.0047 8.11649C87.8058 8.46687 87.704 8.85749 87.6993 9.28836V11.071C87.6993 11.6108 87.7987 12.0772 87.9976 12.4702C88.2012 12.8632 88.4876 13.1662 88.857 13.3793C89.2263 13.5923 89.6642 13.6989 90.1709 13.6989C90.5071 13.6989 90.8148 13.6515 91.0942 13.5568C91.3735 13.4621 91.6126 13.3201 91.8115 13.1307C92.0104 12.9413 92.1619 12.7093 92.266 12.4347L95.0643 12.6193C94.9223 13.2917 94.6311 13.8788 94.1908 14.3807C93.7552 14.8779 93.1917 15.2661 92.5004 15.5455C91.8139 15.8201 91.0208 15.9574 90.1212 15.9574Z" fill="#1A1A1A"/>
<path d="M77.9736 15.7443V4.83524H80.9069V6.73864H81.0205C81.2194 6.06156 81.5532 5.5502 82.0219 5.20455C82.4907 4.85418 83.0304 4.67899 83.6412 4.67899C83.7928 4.67899 83.9561 4.68846 84.1313 4.70739C84.3065 4.72633 84.4604 4.75238 84.5929 4.78552V7.47018C84.4509 7.42756 84.2544 7.38969 84.0035 7.35654C83.7525 7.3234 83.5229 7.30683 83.3145 7.30683C82.8695 7.30683 82.4717 7.40389 82.1214 7.59802C81.7757 7.78741 81.5011 8.05256 81.2975 8.39347C81.0986 8.73438 80.9992 9.12738 80.9992 9.57245V15.7443H77.9736Z" fill="#1A1A1A"/>
<path d="M71.1371 15.9574C70.0339 15.9574 69.0798 15.723 68.2749 15.2543C67.4747 14.7808 66.8568 14.1226 66.4212 13.2798C65.9856 12.4323 65.7678 11.4498 65.7678 10.3324C65.7678 9.2055 65.9856 8.22065 66.4212 7.37785C66.8568 6.53031 67.4747 5.87217 68.2749 5.40342C69.0798 4.92993 70.0339 4.69319 71.1371 4.69319C72.2404 4.69319 73.1921 4.92993 73.9923 5.40342C74.7972 5.87217 75.4174 6.53031 75.8531 7.37785C76.2887 8.22065 76.5065 9.2055 76.5065 10.3324C76.5065 11.4498 76.2887 12.4323 75.8531 13.2798C75.4174 14.1226 74.7972 14.7808 73.9923 15.2543C73.1921 15.723 72.2404 15.9574 71.1371 15.9574ZM71.1513 13.6136C71.6532 13.6136 72.0723 13.4716 72.4084 13.1875C72.7446 12.8987 72.9979 12.5057 73.1684 12.0085C73.3436 11.5114 73.4312 10.9456 73.4312 10.3111C73.4312 9.67662 73.3436 9.1108 73.1684 8.61365C72.9979 8.11649 72.7446 7.72349 72.4084 7.43467C72.0723 7.14584 71.6532 7.00143 71.1513 7.00143C70.6447 7.00143 70.2186 7.14584 69.8729 7.43467C69.532 7.72349 69.274 8.11649 69.0988 8.61365C68.9283 9.1108 68.8431 9.67662 68.8431 10.3111C68.8431 10.9456 68.9283 11.5114 69.0988 12.0085C69.274 12.5057 69.532 12.8987 69.8729 13.1875C70.2186 13.4716 70.6447 13.6136 71.1513 13.6136Z" fill="#1A1A1A"/>
<path d="M64.8545 4.83523V7.10796H58.2849V4.83523H64.8545ZM59.7764 2.2216H62.802V12.3921C62.802 12.6714 62.8446 12.8892 62.9298 13.0455C63.015 13.197 63.1334 13.3035 63.2849 13.3651C63.4412 13.4266 63.6211 13.4574 63.8247 13.4574C63.9667 13.4574 64.1088 13.4456 64.2508 13.4219C64.3929 13.3935 64.5018 13.3722 64.5775 13.358L65.0534 15.6094C64.9019 15.6567 64.6888 15.7112 64.4142 15.7727C64.1396 15.839 63.8057 15.8793 63.4128 15.8935C62.6836 15.9219 62.0444 15.8248 61.4951 15.6023C60.9506 15.3797 60.5269 15.0341 60.2238 14.5653C59.9208 14.0966 59.7717 13.5047 59.7764 12.7898V2.2216Z" fill="#1A1A1A"/>
<path d="M54.3938 5.38211C54.337 4.80919 54.0931 4.36412 53.6623 4.04688C53.2314 3.72965 52.6466 3.57103 51.908 3.57103C51.4061 3.57103 50.9823 3.64205 50.6367 3.7841C50.2911 3.92141 50.0259 4.11317 49.8412 4.35938C49.6613 4.6056 49.5714 4.88495 49.5714 5.19745C49.5619 5.45787 49.6163 5.68514 49.7347 5.87927C49.8578 6.0734 50.0259 6.24149 50.239 6.38353C50.452 6.52084 50.6982 6.64158 50.9776 6.74575C51.257 6.84518 51.5553 6.93041 51.8725 7.00143L53.1793 7.31393C53.8138 7.45597 54.3962 7.64537 54.9265 7.88211C55.4568 8.11885 55.9161 8.41005 56.3043 8.75569C56.6926 9.10133 56.9932 9.50853 57.2063 9.97728C57.4241 10.446 57.5354 10.9834 57.5401 11.5895C57.5354 12.4796 57.3081 13.2514 56.8583 13.9048C56.4132 14.5535 55.7693 15.0578 54.9265 15.4176C54.0884 15.7727 53.0775 15.9503 51.8938 15.9503C50.7196 15.9503 49.6968 15.7704 48.8256 15.4105C47.9591 15.0507 47.2821 14.518 46.7944 13.8125C46.3114 13.1023 46.0581 12.224 46.0344 11.1776H49.0103C49.0434 11.6653 49.1831 12.0725 49.4293 12.3992C49.6803 12.7211 50.0141 12.965 50.4307 13.1307C50.8521 13.2917 51.328 13.3722 51.8583 13.3722C52.3791 13.3722 52.8313 13.2964 53.2148 13.1449C53.6031 12.9934 53.9037 12.7827 54.1168 12.5128C54.3299 12.2429 54.4364 11.9328 54.4364 11.5824C54.4364 11.2557 54.3393 10.9811 54.1452 10.7585C53.9558 10.536 53.6765 10.3466 53.3071 10.1903C52.9426 10.0341 52.4951 9.89205 51.9648 9.76421L50.381 9.36649C49.1547 9.06819 48.1864 8.60181 47.4762 7.96734C46.766 7.33287 46.4132 6.47823 46.4179 5.40342C46.4132 4.52273 46.6476 3.75332 47.1211 3.09518C47.5993 2.43704 48.2551 1.9233 49.0884 1.55399C49.9217 1.18467 50.8687 1.00001 51.9293 1.00001C53.0089 1.00001 53.9511 1.18467 54.756 1.55399C55.5657 1.9233 56.1954 2.43704 56.6452 3.09518C57.095 3.75332 57.327 4.51563 57.3412 5.38211H54.3938Z" fill="#1A1A1A"/>
<path d="M37.4914 9.4375V15.7443H34.4658V1.19887H37.4062V6.75995H37.534C37.7802 6.11601 38.1779 5.61175 38.7272 5.24716C39.2764 4.87785 39.9653 4.69319 40.7939 4.69319C41.5515 4.69319 42.212 4.85891 42.7755 5.19034C43.3437 5.51705 43.784 5.98817 44.0965 6.6037C44.4137 7.21449 44.57 7.94603 44.5653 8.7983V15.7443H41.5397V9.33807C41.5444 8.66572 41.374 8.14252 41.0283 7.76847C40.6874 7.39442 40.2092 7.20739 39.5937 7.20739C39.1817 7.20739 38.8171 7.29499 38.4999 7.47017C38.1874 7.64536 37.9412 7.90105 37.7613 8.23722C37.5861 8.56866 37.4961 8.96875 37.4914 9.4375Z" fill="#1A1A1A"/>
<path d="M28.1567 15.9574C27.0392 15.9574 26.0781 15.7207 25.2731 15.2472C24.473 14.7689 23.8574 14.1061 23.4266 13.2585C23.0004 12.411 22.7874 11.4356 22.7874 10.3324C22.7874 9.21497 23.0028 8.23486 23.4337 7.39205C23.8693 6.54452 24.4872 5.88401 25.2874 5.41052C26.0875 4.9323 27.0392 4.69319 28.1425 4.69319C29.0942 4.69319 29.9275 4.86601 30.6425 5.21166C31.3574 5.5573 31.9232 6.04262 32.3399 6.66762C32.7566 7.29262 32.9862 8.02652 33.0288 8.86933H30.1737C30.0932 8.32482 29.8802 7.88685 29.5345 7.55541C29.1936 7.21923 28.7462 7.05115 28.1922 7.05115C27.7234 7.05115 27.3139 7.17899 26.9635 7.43467C26.6178 7.68562 26.348 8.05257 26.1538 8.53552C25.9597 9.01848 25.8626 9.60323 25.8626 10.2898C25.8626 10.9858 25.9573 11.5777 26.1467 12.0653C26.3409 12.553 26.6131 12.9247 26.9635 13.1804C27.3139 13.4361 27.7234 13.5639 28.1922 13.5639C28.5378 13.5639 28.848 13.4929 29.1226 13.3509C29.4019 13.2088 29.6316 13.0028 29.8115 12.733C29.9962 12.4583 30.1169 12.1293 30.1737 11.7457H33.0288C32.9815 12.5791 32.7542 13.313 32.347 13.9475C31.9446 14.5772 31.3882 15.0696 30.678 15.4247C29.9678 15.7798 29.1273 15.9574 28.1567 15.9574Z" fill="#1A1A1A"/>
<path d="M16.7462 15.9574C15.624 15.9574 14.6581 15.7301 13.8484 15.2756C13.0435 14.8163 12.4232 14.1676 11.9876 13.3296C11.552 12.4868 11.3342 11.4901 11.3342 10.3395C11.3342 9.21734 11.552 8.23249 11.9876 7.38495C12.4232 6.53741 13.0364 5.8769 13.8271 5.40342C14.6226 4.92993 15.5553 4.69319 16.6254 4.69319C17.3451 4.69319 18.0151 4.8092 18.6354 5.0412C19.2604 5.26848 19.8049 5.61175 20.2689 6.07103C20.7376 6.53031 21.1022 7.10796 21.3626 7.80399C21.6231 8.49527 21.7533 9.30493 21.7533 10.233V11.0639H12.5416V9.18893H18.9053C18.9053 8.75332 18.8106 8.36743 18.6212 8.03126C18.4318 7.69509 18.169 7.4323 17.8328 7.24291C17.5014 7.04878 17.1155 6.95171 16.6751 6.95171C16.2159 6.95171 15.8087 7.05825 15.4535 7.27132C15.1032 7.47965 14.8285 7.76137 14.6297 8.11649C14.4308 8.46687 14.329 8.85749 14.3243 9.28836V11.071C14.3243 11.6108 14.4237 12.0772 14.6226 12.4702C14.8262 12.8632 15.1126 13.1662 15.482 13.3793C15.8513 13.5923 16.2892 13.6989 16.7959 13.6989C17.1321 13.6989 17.4398 13.6515 17.7192 13.5568C17.9985 13.4621 18.2376 13.3201 18.4365 13.1307C18.6354 12.9413 18.7869 12.7093 18.891 12.4347L21.6893 12.6193C21.5473 13.2917 21.2561 13.8788 20.8158 14.3807C20.3802 14.8779 19.8167 15.2661 19.1254 15.5455C18.4389 15.8201 17.6458 15.9574 16.7462 15.9574Z" fill="#1A1A1A"/>
<path d="M0 3.73438V1.19887H11.946V3.73438H7.4929V15.7443H4.45312V3.73438H0Z" fill="#1A1A1A"/>
</svg>
