<svg width="157" height="24" viewBox="0 0 157 24" fill="none" xmlns="http://www.w3.org/2000/svg">
<path d="M12.5 19.2371L4.77392 24L6.87434 15.1111L0 9.1675L9.0234 8.43781L12.5 0L15.9766 8.43781L25 9.1675L18.1257 15.1111L20.2261 24L12.5 19.2371Z" fill="#42307D" fill-opacity="0.8"/>
<path d="M45.5 19.2371L37.7739 24L39.8743 15.1111L33 9.1675L42.0234 8.43781L45.5 0L48.9766 8.43781L58 9.1675L51.1257 15.1111L53.2261 24L45.5 19.2371Z" fill="#42307D" fill-opacity="0.8"/>
<path d="M78.5 19.2371L70.7739 24L72.8743 15.1111L66 9.1675L75.0234 8.43781L78.5 0L81.9766 8.43781L91 9.1675L84.1257 15.1111L86.2261 24L78.5 19.2371Z" fill="#42307D" fill-opacity="0.8"/>
<path d="M111.5 19.2371L103.774 24L105.874 15.1111L99 9.1675L108.023 8.43781L111.5 0L114.977 8.43781L124 9.1675L117.126 15.1111L119.226 24L111.5 19.2371Z" fill="#42307D" fill-opacity="0.8"/>
<path d="M144.5 19.2371L136.774 24L138.874 15.1111L132 9.1675L141.023 8.43781L144.5 0L147.977 8.43781L157 9.1675L150.126 15.1111L152.226 24L144.5 19.2371Z" fill="#42307D" fill-opacity="0.8"/>
</svg>
